<svg class="border shadow-md" viewBox="0 0 1351.68 760.32" xmlns="http://www.w3.org/2000/svg" preserveAspectRatio="none" style="width: 1351.68px; height: 760.32px;"><rect class="bg" id="bg" x="0" y="0" width="1351.68" height="760.32" fill="#0A1415"/><g transform="rotate(0 675.84 380.16)"><path d="M -387.92 -0.41 S -390.00 -15.62&#10;            0.00 -0.41 142.92 -15.62&#10;            387.92 -0.41 571.88 -19.41&#10;            775.84 -0.41 830.76 -15.62&#10;            1163.76 -0.41 1347.72 -21.41&#10;            1551.68 -0.41 1735.64 -15.62&#10;            1939.60 -0.41 h 110 V 960.32 H -387.92 Z" fill="#0A1415" id="-1"/><path d="M -387.92 30.00 S -203.96 14.79&#10;            0.00 30.00 94.92 14.79&#10;            387.92 30.00 475.84 14.79&#10;            775.84 30.00 959.80 14.79&#10;            1163.76 30.00 1347.72 14.00&#10;            1551.68 30.00 1735.64 14.79&#10;            1939.60 30.00 h 110 V 960.32 H -387.92 Z" fill="#091314" id="0"/><path id="1" d="M -387.92 60.41 S -206.00 38.41&#10;            0.00 60.41 10.92 45.21&#10;            387.92 60.41 571.88 41.41&#10;            775.84 60.41 959.80 39.41&#10;            1163.76 60.41 1324.68 31.41&#10;            1551.68 60.41 1629.60 36.41&#10;            1939.60 60.41 h 110 V 960.32 H -387.92 Z" fill="#081213"/><path id="2" d="M -387.92 90.83 S -203.96 61.83&#10;            0.00 90.83 69.92 75.62&#10;            387.92 90.83 571.88 68.83&#10;            775.84 90.83 959.80 61.83&#10;            1163.76 90.83 1347.72 75.62&#10;            1551.68 90.83 1735.64 74.83&#10;            1939.60 90.83 h 110 V 960.32 H -387.92 Z" fill="#071112"/><path id="3" d="M -387.92 121.24 S -333.00 100.24&#10;            0.00 121.24 69.92 106.03&#10;            387.92 121.24 571.88 106.03&#10;            775.84 121.24 959.80 98.24&#10;            1163.76 121.24 1347.72 105.24&#10;            1551.68 121.24 1544.60 106.03&#10;            1939.60 121.24 h 110 V 960.32 H -387.92 Z" fill="#061011"/><path id="4" d="M -387.92 151.65 S -203.96 124.65&#10;            0.00 151.65 183.96 136.44&#10;            387.92 151.65 417.84 126.65&#10;            775.84 151.65 913.76 121.65&#10;            1163.76 151.65 1251.68 136.44&#10;            1551.68 151.65 1542.60 136.44&#10;            1939.60 151.65 h 110 V 960.32 H -387.92 Z" fill="#050f10"/><path id="5" d="M -387.92 182.06 S -210.00 153.06&#10;            0.00 182.06 183.96 160.06&#10;            387.92 182.06 571.88 166.86&#10;            775.84 182.06 885.76 160.06&#10;            1163.76 182.06 1175.68 163.06&#10;            1551.68 182.06 1735.64 166.86&#10;            1939.60 182.06 h 110 V 960.32 H -387.92 Z" fill="#040e0f"/><path id="6" d="M -387.92 212.48 S -203.96 192.48&#10;            0.00 212.48 45.92 196.48&#10;            387.92 212.48 571.88 197.27&#10;            775.84 212.48 959.80 184.48&#10;            1163.76 212.48 1331.68 196.48&#10;            1551.68 212.48 1698.60 197.27&#10;            1939.60 212.48 h 110 V 960.32 H -387.92 Z" fill="#030d0e"/><path id="7" d="M -387.92 242.89 S -203.96 227.68&#10;            0.00 242.89 183.96 227.68&#10;            387.92 242.89 470.84 227.68&#10;            775.84 242.89 959.80 226.89&#10;            1163.76 242.89 1347.72 223.89&#10;            1551.68 242.89 1735.64 218.89&#10;            1939.60 242.89 h 110 V 960.32 H -387.92 Z" fill="#020c0d"/><path id="8" d="M -387.92 273.30 S -203.96 258.10&#10;            0.00 273.30 183.96 248.30&#10;            387.92 273.30 571.88 258.10&#10;            775.84 273.30 946.76 245.30&#10;            1163.76 273.30 1347.72 258.10&#10;            1551.68 273.30 1590.60 258.10&#10;            1939.60 273.30 h 110 V 960.32 H -387.92 Z" fill="#010b0c"/><path id="9" d="M -387.92 303.72 S -203.96 288.51&#10;            0.00 303.72 66.92 281.72&#10;            387.92 303.72 571.88 277.72&#10;            775.84 303.72 959.80 288.51&#10;            1163.76 303.72 1192.68 288.51&#10;            1551.68 303.72 1735.64 288.51&#10;            1939.60 303.72 h 110 V 960.32 H -387.92 Z" fill="#000a0b"/><path id="10" d="M -387.92 334.13 S -390.00 315.13&#10;            0.00 334.13 166.92 305.13&#10;            387.92 334.13 487.84 305.13&#10;            775.84 334.13 807.76 318.92&#10;            1163.76 334.13 1347.72 306.13&#10;            1551.68 334.13 1735.64 308.13&#10;            1939.60 334.13 h 110 V 960.32 H -387.92 Z" fill="#00090a"/><path id="11" d="M -387.92 364.54 S -203.96 349.33&#10;            0.00 364.54 -9.08 349.33&#10;            387.92 364.54 571.88 349.33&#10;            775.84 364.54 849.76 337.54&#10;            1163.76 364.54 1170.68 338.54&#10;            1551.68 364.54 1675.60 349.33&#10;            1939.60 364.54 h 110 V 960.32 H -387.92 Z" fill="#000809"/><path id="12" d="M -387.92 394.95 S -203.96 379.75&#10;            0.00 394.95 82.92 379.75&#10;            387.92 394.95 571.88 365.95&#10;            775.84 394.95 959.80 379.75&#10;            1163.76 394.95 1264.68 378.95&#10;            1551.68 394.95 1735.64 379.75&#10;            1939.60 394.95 h 110 V 960.32 H -387.92 Z" fill="#000708"/><path id="13" d="M -387.92 425.37 S -203.96 410.16&#10;            0.00 425.37 5.92 410.16&#10;            387.92 425.37 571.88 410.16&#10;            775.84 425.37 959.80 410.16&#10;            1163.76 425.37 1295.68 397.37&#10;            1551.68 425.37 1735.64 410.16&#10;            1939.60 425.37 h 110 V 960.32 H -387.92 Z" fill="#000607"/><path id="14" d="M -387.92 455.78 S -364.00 440.57&#10;            0.00 455.78 183.96 440.57&#10;            387.92 455.78 571.88 436.78&#10;            775.84 455.78 776.76 440.57&#10;            1163.76 455.78 1213.68 431.78&#10;            1551.68 455.78 1644.60 440.57&#10;            1939.60 455.78 h 110 V 960.32 H -387.92 Z" fill="#000506"/><path id="15" d="M -387.92 486.19 S -203.96 467.19&#10;            0.00 486.19 20.92 470.99&#10;            387.92 486.19 571.88 468.19&#10;            775.84 486.19 959.80 470.99&#10;            1163.76 486.19 1347.72 470.99&#10;            1551.68 486.19 1708.60 460.19&#10;            1939.60 486.19 h 110 V 960.32 H -387.92 Z" fill="#000405"/><path id="16" d="M -387.92 516.60 S -276.00 491.60&#10;            0.00 516.60 183.96 494.60&#10;            387.92 516.60 571.88 501.40&#10;            775.84 516.60 941.76 501.40&#10;            1163.76 516.60 1179.68 501.40&#10;            1551.68 516.60 1599.60 501.40&#10;            1939.60 516.60 h 110 V 960.32 H -387.92 Z" fill="#000304"/><path id="17" d="M -387.92 547.02 S -203.96 527.02&#10;            0.00 547.02 183.96 531.81&#10;            387.92 547.02 571.88 531.81&#10;            775.84 547.02 959.80 531.81&#10;            1163.76 547.02 1290.68 523.02&#10;            1551.68 547.02 1735.64 531.02&#10;            1939.60 547.02 h 110 V 960.32 H -387.92 Z" fill="#000203"/><path id="18" d="M -387.92 577.43 S -248.00 555.43&#10;            0.00 577.43 183.96 552.43&#10;            387.92 577.43 437.84 562.22&#10;            775.84 577.43 820.76 551.43&#10;            1163.76 577.43 1347.72 556.43&#10;            1551.68 577.43 1712.60 557.43&#10;            1939.60 577.43 h 110 V 960.32 H -387.92 Z" fill="#000102"/><path id="19" d="M -387.92 607.84 S -250.00 587.84&#10;            0.00 607.84 183.96 583.84&#10;            387.92 607.84 571.88 592.64&#10;            775.84 607.84 959.80 578.84&#10;            1163.76 607.84 1240.68 587.84&#10;            1551.68 607.84 1730.60 592.64&#10;            1939.60 607.84 h 110 V 960.32 H -387.92 Z" fill="#000001"/><path id="20" d="M -387.92 638.26 S -203.96 623.05&#10;            0.00 638.26 182.92 616.26&#10;            387.92 638.26 571.88 611.26&#10;            775.84 638.26 959.80 610.26&#10;            1163.76 638.26 1347.72 623.05&#10;            1551.68 638.26 1545.60 623.05&#10;            1939.60 638.26 h 110 V 960.32 H -387.92 Z" fill="#000000"/><path id="21" d="M -387.92 668.67 S -203.96 641.67&#10;            0.00 668.67 183.96 642.67&#10;            387.92 668.67 571.88 653.46&#10;            775.84 668.67 959.80 650.67&#10;            1163.76 668.67 1164.68 653.46&#10;            1551.68 668.67 1735.64 653.46&#10;            1939.60 668.67 h 110 V 960.32 H -387.92 Z" fill="#000000"/><path id="22" d="M -387.92 699.08 S -203.96 683.88&#10;            0.00 699.08 183.96 683.88&#10;            387.92 699.08 469.84 676.08&#10;            775.84 699.08 918.76 683.88&#10;            1163.76 699.08 1347.72 683.88&#10;            1551.68 699.08 1735.64 678.08&#10;            1939.60 699.08 h 110 V 960.32 H -387.92 Z" fill="#000000"/><path id="23" d="M -387.92 729.49 S -203.96 703.49&#10;            0.00 729.49 183.96 708.49&#10;            387.92 729.49 547.84 714.29&#10;            775.84 729.49 911.76 714.29&#10;            1163.76 729.49 1347.72 714.29&#10;            1551.68 729.49 1592.60 711.49&#10;            1939.60 729.49 h 110 V 960.32 H -387.92 Z" fill="#000000"/><path id="24" d="M -387.92 759.91 S -224.00 744.70&#10;            0.00 759.91 142.92 730.91&#10;            387.92 759.91 571.88 744.70&#10;            775.84 759.91 959.80 744.70&#10;            1163.76 759.91 1347.72 744.70&#10;            1551.68 759.91 1551.60 738.91&#10;            1939.60 759.91 h 110 V 960.32 H -387.92 Z" fill="#000000"/></g></svg>