<svg xmlns="http://www.w3.org/2000/svg" xmlns:xlink="http://www.w3.org/1999/xlink" width="200" zoomAndPan="magnify" viewBox="0 0 150 112.499997" height="150" preserveAspectRatio="xMidYMid meet" version="1.0"><defs><clipPath id="58a759fe4d"><path d="M 0.332031 0 L 149.371094 0 L 149.371094 22.378906 L 0.332031 22.378906 Z M 0.332031 0 " clip-rule="nonzero"/></clipPath><clipPath id="fa082991ac"><path d="M 0.332031 44.757812 L 149.371094 44.757812 L 149.371094 67.140625 L 0.332031 67.140625 Z M 0.332031 44.757812 " clip-rule="nonzero"/></clipPath><clipPath id="8ba71f78b2"><path d="M 0.332031 89.519531 L 149.371094 89.519531 L 149.371094 111.898438 L 0.332031 111.898438 Z M 0.332031 89.519531 " clip-rule="nonzero"/></clipPath></defs><g clip-path="url(#58a759fe4d)"><path fill="#000000" d="M 0.332031 0 L 149.386719 0 L 149.386719 22.378906 L 0.332031 22.378906 Z M 0.332031 0 " fill-opacity="1" fill-rule="nonzero"/></g><g clip-path="url(#fa082991ac)"><path fill="#000000" d="M 0.332031 44.757812 L 149.386719 44.757812 L 149.386719 67.140625 L 0.332031 67.140625 Z M 0.332031 44.757812 " fill-opacity="1" fill-rule="nonzero"/></g><g clip-path="url(#8ba71f78b2)"><path fill="#000000" d="M 0.332031 89.519531 L 149.386719 89.519531 L 149.386719 111.898438 L 0.332031 111.898438 Z M 0.332031 89.519531 " fill-opacity="1" fill-rule="nonzero"/></g></svg>